<?xml version="1.0" encoding="UTF-8"?>
<!DOCTYPE svg PUBLIC "-//W3C//DTD SVG 1.1//EN" "http://www.w3.org/Graphics/SVG/1.1/DTD/svg11.dtd">
<!-- Creator: CorelDRAW 2018 (64-Bit) -->
<svg xmlns="http://www.w3.org/2000/svg" xml:space="preserve" width="97px" height="97px" version="1.1" style="shape-rendering:geometricPrecision; text-rendering:geometricPrecision; image-rendering:optimizeQuality; fill-rule:evenodd; clip-rule:evenodd"
viewBox="0 0 98.16 98.16"
 xmlns:xlink="http://www.w3.org/1999/xlink">
 <defs>
  <style type="text/css">
   <![CDATA[
    .fil2 {fill:none}
    .fil1 {fill:#FEFEFE}
    .fil0 {fill:#281567}
   ]]>
  </style>
 </defs>
 <g id="Layer_x0020_1">
  <metadata id="CorelCorpID_0Corel-Layer"/>
  <circle class="fil0" cx="49.08" cy="49.08" r="49.08"/>
  <g id="_2282892959840">
   <path class="fil1" d="M53.21 20.62c0.34,-1.48 0.86,-3.26 0.76,-5.13 -0.03,-0.44 -0.03,-0.81 -0.03,-1.26 -0.01,-0.94 -0.28,-1.5 -0.29,-2.32l-6.97 0c0,1.69 0.34,3.74 0.06,5.59 -0.19,1.25 -0.71,3.89 -1.36,4.44 -0.25,0.22 -0.75,0.3 -1.05,0.41 -0.73,0.25 -2.3,1.08 -2.88,1.46 -3.53,2.32 -5.8,6.34 -6.83,10.6 -0.67,2.78 -1.08,11.22 0.87,12.65 1.88,1.37 5.45,1.36 6.8,0.1 2.14,-1.98 -0.63,-3.95 0.67,-9.78 1.1,-4.91 5.13,-9.51 9.06,-8.01 1.56,0.59 2.33,1.45 3.08,2.87 1.14,-0.03 6.74,-2.67 7.84,-2.76 -0.22,-0.93 -2.52,-3.9 -3.2,-4.36 0.81,-1.2 2.11,-2.49 3.6,-4.82 0.88,-1.36 2.44,-4.25 2.79,-5.77 -0.54,-0.05 -1.36,-0.25 -1.94,-0.38l-5.75 -1.22c-2.06,3.89 -1.87,3.68 -4.38,6.8 -0.35,0.44 -0.36,0.56 -0.85,0.89z"/>
   <path class="fil1" d="M58.15 84.51l0.14 0c0.62,-0.42 0.46,-0.21 1.11,-0.78 0.16,-0.14 0.24,-0.19 0.39,-0.33 0.69,-0.63 0.35,-0.29 0.75,-0.57 0.42,-0.28 0.31,-0.32 0.72,-0.73 0.02,-0.02 0.05,-0.05 0.07,-0.07 0.02,-0.02 0.06,-0.05 0.08,-0.07l1.78 -1.85c0.01,-0.02 0.04,-0.06 0.06,-0.08 0.71,-0.84 1.42,-1.46 1.83,-2.46l3 -5.5 0.81 -2.8c0.94,-2.76 0.2,-1 0.86,-4.24 0.31,-1.47 -0.22,-5.14 -0.78,-6.75 -0.38,-1.09 0.15,-0.59 -0.66,-1.79 1.37,-0.92 2.33,-3.73 2.86,-4.71 0.3,-0.56 0.6,-2.66 0.62,-3.43 0.02,-0.73 -0.19,-2.54 -0.55,-3.36 -0.1,-0.25 -0.12,-0.28 -0.19,-0.53 -0.48,-1.58 -0.58,-1.3 -0.71,-1.77 -2.78,0 -0.69,-0.15 -3.51,0.14 -1,0.1 -0.84,-0.3 0.21,1.71l0.16 0.28c0.02,0.03 0.04,0.06 0.05,0.09 0.11,0.21 0.34,0.67 0.39,0.87 0.07,0.3 -0.01,0.5 0.17,1.03 0.36,1.04 0.18,1.88 -0.02,3.24 -0.19,1.33 -0.97,2.58 -1.83,3.51 -0.02,0.02 -0.05,0.05 -0.07,0.07 -0.02,0.02 -0.05,0.05 -0.07,0.08l-1.29 1.76c-0.38,0.59 -0.06,1.31 0.26,2.4 0.17,0.62 0.21,0.33 0.44,0.82 0.13,0.25 0.26,0.69 0.34,0.97 0.08,0.28 0.18,0.77 0.26,1.05 0.12,0.46 0.33,3.08 0.31,3.47 -0.04,0.89 -0.34,0.82 -0.36,2.24 -0.01,0.63 -0.25,1.39 -0.46,2.03 -0.13,0.39 -0.21,0.65 -0.35,0.96 -0.18,0.39 -0.32,0.54 -0.44,1.01l0 0.15c-0.21,0.92 -1.24,2.93 -1.76,3.61l-0.65 0.94c-0.05,0.07 -0.14,0.19 -0.19,0.25l-1.46 2.02 0 0.15 -0.15 0.14 -0.14 0.15 -0.15 0.14 -0.14 0.15c-0.41,0.61 -1.14,1.34 -1.74,1.74l-0.15 0.15 -0.14 0c-0.28,0.19 -0.01,0.02 -0.23,0.2l-2.31 1.62c-1.91,1.25 -3.59,0.89 -5.36,-0.17l-1.08 -0.67c-0.52,-0.38 -1.52,-1.1 -1.86,-1.47 -0.52,-0.56 -0.99,-0.68 -1.57,-1.34l-1.96 -1.91c-0.27,-0.21 -0.68,-0.29 -1.05,-0.95 -0.27,-0.45 0.3,0.03 -0.71,-0.67 -0.31,-0.21 -0.55,-0.45 -0.75,-0.78 -0.3,-0.49 -0.19,-0.36 -0.66,-0.65 -0.34,-0.21 -0.52,-0.7 -1.61,-1.66l-2.67 -2.69c-0.03,-0.02 -0.07,-0.04 -0.09,-0.06l-2.28 -2.23c-0.23,-0.34 -0.1,-0.3 -0.39,-0.54l-0.13 -0.07c-0.3,-0.23 -0.59,-0.7 -0.77,-1.02l-0.33 -0.51c-0.88,-1.21 -0.65,-1.24 -1.06,-1.99 -0.51,-0.91 -0.71,-1.71 -0.97,-2.67 -0.14,-0.47 -0.39,-3.06 -0.3,-3.7l0.37 -1.7c0.37,-2.31 2.31,-3.11 1.85,-4.63 -0.17,-0.54 -0.16,-0.36 -0.48,-0.71l-0.32 -0.54c-3.05,-0.25 -1.78,0.7 -3.05,1.16 0,-2.52 -0.48,-2.7 0.87,-5.52l0 -0.14c0.37,-1.56 1.8,-2.48 2.21,-3.45 0.42,-0.98 -0.01,-2.41 0.29,-3.63 0.12,-0.48 0.12,-0.68 0.12,-1.34 -1.11,0.26 -2.52,1.98 -3.31,2.8 -1.14,1.17 -2.66,3.28 -3.07,4.92 -0.75,2.92 -1.41,4 -0.65,7 0.15,0.6 0.16,1.08 0.42,1.6l0.51 0.96c0.16,0.45 0.03,0.29 0.11,0.54 0.33,0.99 0.94,0.03 0.58,2.03 -0.26,1.38 -0.09,1.19 -0.11,2.65 -0.01,0.72 0.07,1.28 0.25,1.93 0.05,0.19 0.13,0.64 0.14,0.73 0.18,1.11 0.57,1.99 0.88,2.89 0.22,0.62 0.03,0.13 0.26,0.47 0.23,0.34 0,-0.14 0.28,0.45l0.65 1.38c0.47,0.59 0.72,1.23 1.25,1.8l0.76 1.06c0.38,0.65 2.28,2.12 3.02,2.85 0.02,0.02 0.05,0.05 0.08,0.07 0.59,0.58 0.92,0.92 1.5,1.55 0.35,0.38 0.8,0.62 1.08,1.05 0.4,0.62 1.2,1.09 1.65,1.75l0.3 0.33c0.01,0.01 0.05,0.04 0.06,0.04 0.01,0.01 0.05,0.03 0.06,0.04 0.01,0.01 0.05,0.04 0.06,0.05l0.25 0.24c0.33,0.35 0.44,0.57 0.72,0.88l2.38 2.14c0.22,0.17 0.19,0.13 0.34,0.34l0.44 0.55c0.01,0.01 0.05,0.04 0.06,0.05 0.02,0.01 0.05,0.04 0.06,0.05l0.95 0.77c0.79,0.76 2.01,1.68 2.05,1.71 0.02,0.02 0.05,0.04 0.07,0.06 0.01,0.01 0.05,0.03 0.06,0.04l0.84 0.55c0.07,0.05 0.17,0.13 0.22,0.17 0.01,0.02 0.03,0.05 0.05,0.06l0.44 0.36 2.37 1.16c1.52,0.42 1.33,0.56 2,0.6l2.07 0 0.94 -0.16 1.36 -0.52c0.72,-0.32 1.4,-0.87 2.14,-1.06z"/>
   <path class="fil1" d="M48.27 66.5l-0.14 0 -1.71 0.77c-0.53,0.35 -0.87,0.94 -0.46,1.69 0.7,1.28 2.25,0.39 3.33,-0.13 0.92,-0.45 2.61,-1.01 3.34,-1.6l0.16 -0.13c0.16,-0.11 0.15,-0.11 0.36,-0.22 1.16,-0.67 1.86,-1.4 2.38,-1.54 -0.2,0.39 -0.27,0.63 -0.41,1.04 -0.16,0.42 -0.29,0.65 -0.44,1.02 -0.31,0.76 -0.61,1.34 -1,2.06 -0.27,0.5 -0.74,2.12 -1.84,3.95 -0.23,0.38 -0.33,0.58 -0.52,0.94 -0.17,0.32 -0.95,1.01 -0.26,2.15 0.19,0.32 0.63,0.54 1,0.52 0.76,-0.03 1.14,-0.78 1.52,-1.43 0.21,-0.36 0.31,-0.64 0.51,-0.95 0.3,-0.48 0.41,-0.34 0.57,-1.02l0 -0.15c0.15,-0.64 1.42,-3.28 1.89,-3.63 0.01,0.65 0.22,1.07 0.22,1.65 0.01,0.88 0.05,1.52 -0.08,2.44 -0.06,0.4 -0.11,0.68 0.1,1.01 0.45,0.69 1.99,0.59 2.29,-0.39 0.51,-1.69 0.36,-3.32 -0.13,-5.22l-0.5 -2.55c-0.48,-1.54 0,-1.89 0.21,-2.76l0.49 -2.47c0.26,-0.95 0.21,-0.88 0.19,-1.73 -0.01,-0.49 0.14,-1.12 0.12,-1.89 -0.03,-0.8 -0.24,-1.19 -0.3,-1.88 0.87,0.2 0.76,0.85 1.83,0.53 0.75,-0.22 0.93,-0.78 0.93,-1.69 -0.02,-0.01 -0.05,-0.04 -0.05,-0.03l-0.12 -0.06c-0.53,-0.37 -0.98,-0.97 -1.55,-1.26 -0.16,-0.08 -0.46,-0.16 -0.77,-0.37l-3.17 -1.77c0,-1.28 0.37,-2.46 0.42,-3.63l0.01 -3.92c0.89,-0.47 1.58,-0.94 2.52,-1.41 0.25,-0.12 0.29,-0.16 0.55,-0.23 1.34,-0.35 2.32,-1.25 4.17,-1.58l0.95 -0.19c1.57,-0.41 2.95,-0.51 4.59,-0.51 0.76,0 3.14,0.13 3.65,0.27l1.52 0.24c1.06,0.14 2.12,0.48 3.12,0.79 1.5,0.46 2.05,-0.19 2.16,-1.59 -0.52,-0.19 -0.07,-0.03 -0.58,-0.43 -0.23,-0.18 -0.45,-0.32 -0.73,-0.43 -0.39,-0.13 -0.5,-0.1 -0.97,-0.19 -1.51,-0.3 -3.08,-0.91 -4.54,-0.97 -0.89,-0.03 -1.81,-0.23 -2.69,-0.19 -1.15,0.06 -1.9,-0.1 -3.07,0.08 -0.58,0.09 -1.41,0.16 -1.99,0.16 -0.89,0.01 -2.57,0.71 -3.45,0.94 -0.94,0.25 -0.59,0.12 -1.49,0.54 -1.04,0.48 -2.07,0.87 -3.05,1.45l-2.58 1.49c-0.03,0.02 -0.14,0.09 -0.17,0.11 -1.06,0.76 -0.37,1.98 -0.45,3.24 -0.06,0.99 0.12,1.64 -0.12,3.03l-0.31 2.81c-0.02,0.75 0.41,1.23 0.77,1.84 0.01,0.01 0.03,0.05 0.04,0.07l0.07 0.13c0.43,0.62 1.72,0.74 2.19,3.64 0.4,2.47 0.25,3.21 -1.5,4.96 -1.23,1.23 -0.28,0.4 -1.41,1.35 -0.02,0.02 -0.05,0.04 -0.08,0.06 -1.18,0.99 -4.04,2.83 -5.54,3.17z"/>
   <path class="fil1" d="M78.28 35.64c1.3,0.66 2.58,-0.7 2.02,-1.75l-0.2 -0.24 -0.98 -0.46c-1.24,-0.5 -4.03,-0.95 -4.98,-1.27l-3.65 -0.41c-0.8,0 -4.92,0.01 -5.53,0.13l-2.52 0.49c-1.59,0.14 -0.8,0.12 -2.31,0.64l-3.17 1.04c-0.69,0.33 -2.15,1.27 -2.88,1.33 -0.39,-0.82 0.21,-0.22 -0.7,-1.33l-0.53 -0.85c-0.23,-0.61 -0.15,-0.51 -0.71,-0.71 -0.45,-0.16 -0.9,-0.37 -1.44,-0.42 -0.37,-0.03 -0.61,0.02 -0.92,0.17 -0.41,0.22 -0.44,0.31 -0.64,0.67 0.55,0.15 1.04,0.81 1.3,1.32 0.05,0.09 0.11,0.26 0.14,0.3l0.36 0.51c0.88,0.98 0.47,1 1.13,1.92 0.35,0.49 0.41,1.14 0.88,1.43 -0.43,-0.79 18.66,-6.25 25.33,-2.51z"/>
   <path class="fil1" d="M46.39 47.19c0,0.61 -0.1,0.23 -0.09,0.71 0,0.18 0.08,0.39 0.09,0.75 -2.08,0.48 -5.65,-0.2 -5.62,1.75 0,0.57 0.59,0.98 0.78,1.16 0.01,0.01 0.04,0.04 0.05,0.06l0.14 0.22c0.55,-0.01 1.23,-0.34 2.57,-0.49 0.66,-0.07 2.86,0.44 4.05,-1.31 1,-1.47 0.31,-2.49 0.57,-4.73 0.14,-1.16 -0.21,-0.79 -0.23,-1.89 -0.03,-1.58 -0.26,-1.27 -0.52,-3.18l-1.13 -2.86c-0.27,-0.43 -0.47,-0.62 -0.52,-1.22l-0.58 0c-0.11,0.46 -0.07,0.13 -0.16,0.55l-0.27 1.92c-0.26,1.84 0,1.29 0.25,2.65 0.12,0.7 0.07,0.69 0.26,1.33 0.16,0.51 0.21,0.77 0.21,1.39 0.01,1.13 0.15,1.92 0.15,3.19z"/>
   <path class="fil1" d="M36.37 24.69c0.57,-0.39 0.5,-0.52 0.91,-0.98 0.46,-0.5 0.78,-0.33 0.97,-1.05 -0.42,-0.1 -0.58,-0.19 -0.97,-0.34 -0.37,-0.13 -0.64,-0.18 -1.04,-0.26l-2.04 -0.5c-1.6,-0.18 -4.22,-1.22 -4.14,1.12 0,0.1 -0.03,0.16 0.09,0.38 0.24,0.42 0.03,0.15 0.38,0.35 0.75,0.43 2.97,0.5 3.57,0.75 0.58,0.25 -0.22,-0.02 0.25,0.14l2.02 0.39z"/>
   <path class="fil1" d="M26.93 27.59c0,1.25 0.69,1.35 2.73,1.78 0.65,0.13 0.73,-0.03 1.69,0.34 0.45,0.17 0.25,0.14 0.89,0.27 0.46,0.09 0.59,0.06 0.93,0.23 0.44,-1.87 0.99,-1.35 1.02,-2.47 -1,-0.21 -0.31,0.16 -1.87,-0.46 -0.8,-0.32 -1.12,-0.07 -2.15,-0.47 -0.03,-0.02 -0.07,-0.03 -0.1,-0.05 -0.93,-0.35 -3.14,-0.65 -3.14,0.83z"/>
   <polygon class="fil1" points="60.32,77.68 60.32,77.54 60.18,77.68 "/>
   <polygon class="fil1" points="60.18,77.83 60.18,77.68 60.03,77.83 "/>
   <polygon class="fil1" points="60.03,77.97 60.03,77.83 59.89,77.97 "/>
   <polygon class="fil1" points="60.47,77.54 60.47,77.39 60.32,77.54 "/>
   <polygon class="fil1" points="58,80.01 58,79.86 57.86,80.01 "/>
   <line class="fil2" x1="28.96" y1="44" x2="28.96" y2= "44.14" />
   <line class="fil2" x1="48.27" y1="66.5" x2="48.13" y2= "66.5" />
   <line class="fil2" x1="64.53" y1="70.57" x2="64.53" y2= "70.42" />
   <line class="fil2" x1="54.66" y1="73.47" x2="54.66" y2= "73.62" />
   <line class="fil2" x1="59.89" y1="78.12" x2="59.89" y2= "77.97" />
   <line class="fil2" x1="58.15" y1="79.86" x2="58" y2= "79.86" />
   <line class="fil2" x1="17.87" y1="76.84" x2="17.72" y2= "76.84" />
  </g>
 </g>
</svg>
